<?xml version="1.0" standalone="no"?>
<!DOCTYPE svg PUBLIC "-//W3C//DTD SVG 20010904//EN"
 "http://www.w3.org/TR/2001/REC-SVG-20010904/DTD/svg10.dtd">
<svg version="1.0" xmlns="http://www.w3.org/2000/svg"
 width="100.000000pt" height="100.000000pt" viewBox="0 0 100.000000 100.000000"
 preserveAspectRatio="xMidYMid meet">

<g transform="translate(0.000000,100.000000) scale(0.100000,-0.100000)"
fill="#000000" stroke="none">
<path d="M411 618 c-21 -57 -50 -135 -60 -160 -10 -26 -9 -28 15 -28 17 0 28
7 31 20 4 16 14 20 48 20 35 0 45 -4 50 -20 4 -13 15 -20 31 -20 13 0 24 3 24
7 0 3 -16 50 -37 105 -34 93 -38 98 -65 98 -20 0 -31 -6 -37 -22z m55 -86 c6
-27 4 -32 -13 -32 -29 0 -32 7 -20 46 12 39 24 34 33 -14z"/>
<path d="M642 624 c-30 -21 -30 -69 1 -88 12 -8 34 -18 50 -21 32 -8 39 -45 8
-45 -11 0 -23 5 -26 10 -10 16 -55 12 -55 -5 0 -24 45 -47 86 -43 26 2 43 11
57 29 26 36 10 64 -49 89 -25 11 -44 26 -44 35 0 17 35 21 45 5 10 -16 55 -12
55 4 0 40 -86 60 -128 30z"/>
<path d="M840 620 c0 -16 7 -20 30 -20 l30 0 0 -85 c0 -84 0 -85 25 -85 25 0
25 1 25 85 0 84 0 85 25 85 18 0 25 5 25 20 0 18 -7 20 -80 20 -73 0 -80 -2
-80 -20z"/>
<path d="M138 523 c6 -2 18 -2 25 0 6 3 1 5 -13 5 -14 0 -19 -2 -12 -5z"/>
<path d="M113 483 c9 -2 23 -2 30 0 6 3 -1 5 -18 5 -16 0 -22 -2 -12 -5z"/>
<path d="M83 443 c9 -2 25 -2 35 0 9 3 1 5 -18 5 -19 0 -27 -2 -17 -5z"/>
<path d="M65 410 c-13 -6 2 -7 40 -3 33 3 62 7 64 9 9 8 -85 2 -104 -6z"/>
<path d="M78 373 c17 -2 47 -2 65 0 17 2 3 4 -33 4 -36 0 -50 -2 -32 -4z"/>
</g>
</svg>
